<svg xmlns="http://www.w3.org/2000/svg" fill="#FFFFFF" width="860" height="860">
  <path d="m413.063 89.625 3.498.013c18.304.08 36.303.713 54.439 3.362l3.695.536c64.27 9.64 125.675 36.98 175.46 78.911a750 750 0 0 0 5.42 4.506C677.28 195.037 696.124 216.664 712 240l2.018 2.948C723.335 256.601 732.51 270.236 740 285l1.395 2.72c40.104 78.823 55.266 178.454 28.793 264.28-3.04 9.297-6.919 18.208-11.188 27l-1.01 2.083c-9.513 19.321-21.587 37.11-34.99 53.917l-2.168 2.777A416 416 0 0 1 715 645c-.773.96-1.547 1.918-2.344 2.906-6.626 8.066-13.861 15.513-21.218 22.907l-1.463 1.478c-5.909 5.958-11.995 11.547-18.574 16.767-2.246 1.817-4.361 3.712-6.463 5.692-17.81 15.921-39.335 28.385-60.023 40.16a435 435 0 0 0-3.693 2.126c-32.323 18.782-69.19 26.557-105.784 31.777l-2.232.318c-15.977 2.26-31.641 3.11-47.769 3.119l-3.067.002C384.926 772.192 329.849 761.36 278 736l-2.798-1.368C243.661 719.042 216.613 696.954 192 672a764 764 0 0 0-8.016-7.945c-5.95-5.833-11.576-11.72-16.754-18.266-1.995-2.495-4.06-4.912-6.16-7.32-6.987-8.055-13.092-16.647-19.07-25.469l-1.406-2.062C123.76 586.113 110.899 559.258 101 531l-1.06-3.023c-4.285-12.413-7.828-24.945-10.815-37.727l-.868-3.711c-4.626-20.428-5.466-40.314-5.445-61.164l.002-3.297c.116-77 21.82-148.264 72.615-207.204a174 174 0 0 0 3.396-4.193c6.183-7.807 13.009-14.821 20.067-21.834 1.98-1.969 3.949-3.948 5.917-5.929 7.09-7.1 14.276-13.737 22.191-19.918a896 896 0 0 0 3.758-3.082c17.52-14.265 35.77-26 56.098-35.875a807 807 0 0 0 4.334-2.125c24.748-12.218 49.673-20.55 76.685-26.106l3.467-.72c20.534-4.058 40.81-5.616 61.72-5.467m-47.137 33.733c-3.247.712-6.505 1.339-9.77 1.962-60.854 11.948-111.302 39.878-155.031 83.43l-2.414 2.4c-4.775 4.788-9.34 9.69-13.711 14.85l-1.441 1.692C170.74 242.909 159.837 259.726 150 277l-1.397 2.439C108.093 350.562 106.783 431.544 128 509c3.158 11.825 3.158 11.825 8 23 4.777-.466 6.99-2.382 10.438-5.625l1.556-1.463c6.038-5.761 11.68-11.903 17.31-18.058q2.407-2.63 4.829-5.245 4.439-4.8 8.867-9.609a4185 4185 0 0 1 20.789-22.414c4.241-4.54 8.46-9.1 12.67-13.67 3.85-4.176 7.724-8.33 11.603-12.478q7.656-8.192 15.22-16.47c2.422-2.649 4.857-5.286 7.296-7.92 8.157-8.818 16.182-17.726 23.974-26.87a430 430 0 0 1 9.135-10.365 232 232 0 0 0 8.75-10.25 227 227 0 0 1 9.625-11.125c5.431-5.909 10.376-12.137 15.293-18.473l2.395-3.027 2.172-2.786c2.112-2.187 3.108-2.824 6.078-3.152l1.547 1.914A725 725 0 0 0 339 351a740 740 0 0 1 15 18c10.598-4.398 18.587-18.846 25.266-27.713 2.938-3.874 5.93-7.705 8.921-11.537a1821 1821 0 0 0 11.875-15.375c9.104-11.846 18.646-23.32 28.419-34.618 2.68-3.1 5.35-6.21 8.019-9.32l1.492-1.732A304 304 0 0 0 446 259c2.831.343 4.547.584 6.678 2.544.49.66.98 1.32 1.486 1.999l1.694 2.234 1.767 2.41 3.746 4.961 1.863 2.496a526 526 0 0 0 7.454 9.668l1.338 1.708c3.51 4.452 7.157 8.776 10.845 13.08 3.365 3.945 6.578 7.99 9.754 12.087a224 224 0 0 0 12.223 14.415c2.17 2.419 4.193 4.915 6.214 7.46 5.93 7.318 12.444 14.086 18.966 20.874a537 537 0 0 1 5.495 5.857q1.581 1.668 3.164 3.332l1.42 1.56c1.457 1.574 1.457 1.574 3.893 3.315 3.22.034 4.55-.644 7.063-2.629q1.938-1.935 3.875-3.875C557 361 557 361 559.457 360.492c3.62.723 4.835 2.42 7.23 5.195l1.302 1.495c4.462 5.197 8.597 10.653 12.722 16.118 6.397 8.44 13.02 16.656 19.95 24.663a413 413 0 0 1 8.777 10.474c4.616 5.683 9.414 11.2 14.222 16.72a1458 1458 0 0 1 9.59 11.156 498 498 0 0 0 10.438 11.875 219 219 0 0 1 8.625 10.125c4.408 5.45 9.122 10.564 13.902 15.687 2.758 2.959 5.431 5.984 8.078 9.043A544 544 0 0 0 680.5 500a558 558 0 0 1 7.813 8.813c3.082 3.538 6.25 6.992 9.437 10.437l1.56 1.686a2900 2900 0 0 0 6.162 6.645c7.013 7.532 13.705 15.263 20.055 23.368 2.235 2.806 4.063 4.788 7.473 6.051 17.95-16.083 17.38-64.206 18.61-86.412C753.844 421.5 745.064 372.333 726 327l-1.116-2.66c-17.107-40.252-42.726-76.67-73.72-107.437a1016 1016 0 0 1-5.185-5.198c-6.685-6.693-13.54-12.85-20.979-18.705a969 969 0 0 1-3.828-3.152c-43.364-35.463-99.093-57.875-153.985-67.223l-2.76-.472c-31.082-4.918-67.733-5.583-98.501 1.205m78.187 191.02-1.8 2.185-2.079 2.511c-2.91 3.812-5.698 7.702-8.454 11.627-3.99 5.667-8.308 11.005-12.78 16.299l-2.621 3.113q-4.892 5.796-9.811 11.57c-5.281 6.203-10.514 12.432-15.576 18.817-3.616 4.538-7.309 9.015-10.992 13.5 1.408 4.504 3.87 7.254 7.2 10.457.512.507 1.026 1.013 1.555 1.535a994 994 0 0 0 4.933 4.82 2131 2131 0 0 1 4.879 4.789q1.51 1.486 3.032 2.962a131 131 0 0 1 7.632 8.15c7.193 8.307 15.132 15.955 22.876 23.744q3.099 3.12 6.177 6.26a1281 1281 0 0 0 7.513 7.593 696 696 0 0 1 4.22 4.3l2.6 2.591 2.279 2.303c1.971 1.743 1.971 1.743 4.278 1.311 6.87-3.066 11.928-11.461 16.488-17.152a917 917 0 0 1 4.416-5.436 1365 1365 0 0 0 19.41-24.289q2.565-3.285 5.133-6.567l3.754-4.808 1.767-2.26q1.663-2.134 3.306-4.283a176 176 0 0 1 3.112-3.935c2.758-3.492 2.758-3.492 3.432-7.772-1.054-2.457-2.177-4.242-3.867-6.313l-1.926-2.375a1774 1774 0 0 0-8.657-10.266c-8.196-9.636-16.265-19.382-24.042-29.359-8.239-10.556-16.676-20.98-25.562-31l-2.536-2.875c-3.121-2.761-5.622-4.426-9.289-1.746M321 382c-1.555 6.045-2.316 11.698-2.336 17.934l-.025 2.507c-.019 2.666-.019 5.33-.014 7.997l-.002 2.76c.014 14.306 1.075 27.928 3.839 41.994 6.663 34.761 6.663 34.761-2.462 48.808l-2 1-.03-1.976c-.392-8.049-2.814-14.102-6.345-21.274l-1.624-3.41c-1.65-3.456-3.322-6.899-5.001-10.34q-2.913-5.997-5.812-12l-1.373-2.828c-3.273-6.822-6.142-13.739-8.71-20.856-1.159-3.874-1.159-3.874-4.105-6.316-4.809 3.14-8.436 6.375-12.121 10.77-2.045 2.427-4.173 4.763-6.317 7.105A197 197 0 0 0 258 454c-3.451 4.377-7.101 8.522-10.855 12.64a344 344 0 0 0-5.52 6.235c-10.868 12.456-22.34 24.39-33.672 36.422l-2.007 2.134a2925 2925 0 0 1-3.76 3.99 405 405 0 0 0-10.601 11.758 487 487 0 0 1-5.96 6.696l-2.305 2.555L181 539q-3.375 3.749-6.746 7.5a986 986 0 0 1-4.54 5A663 663 0 0 0 163 559l-2.379 2.64-2.246 2.61-2.04 2.328c-1.796 3.257-1.341 4.898-.335 8.422.92 2.27.92 2.27 2.188 4.25l1.167 2.016c2.338 2.465 4.352 2.897 7.645 3.734 2.843-.01 5.54-.117 8.36-.356q2.422-.17 4.843-.332l2.446-.168c6.187-.378 12.389-.376 18.585-.443l4.666-.059q6.36-.078 12.717-.144l8.188-.091c56.024-.633 112.053-.745 168.08-.933a69327 69327 0 0 0 41.983-.152q10.656-.04 21.312-.071 6.59-.021 13.18-.05 3.015-.011 6.032-.018c12.567-.028 25.064-.4 37.608-1.183a5180 5180 0 0 0-4.508-5.276 101 101 0 0 0-4.86-5.224l-1.745-1.75-1.762-1.75-1.738-1.75c-3-2.993-6.057-5.862-9.27-8.625-5.426-4.692-10.38-9.842-15.406-14.953l-2.274-2.297-2.003-2.04c-1.943-1.863-3.91-3.61-5.953-5.359-5.805-5.046-11.18-10.531-16.61-15.972l-3.48-3.477q-3.63-3.628-7.254-7.26a6897 6897 0 0 0-9.246-9.242q-3.588-3.584-7.173-7.173l-3.407-3.405c-5.495-5.486-10.943-10.97-15.973-16.893-1.79-2.079-3.73-3.972-5.713-5.866a106 106 0 0 1-8.687-9.688c-5.309-6.629-11.168-12.709-17.016-18.86a556 556 0 0 1-9.547-10.327c-4.661-5.12-9.53-10-14.45-14.869-3.637-3.612-7.103-7.303-10.417-11.217-2.144-2.456-4.474-4.705-6.801-6.985-2.323-2.37-4.436-4.894-6.543-7.457L322 382zm229.063 34.625c-5.303 5.43-9.907 11.335-14.51 17.35-2.252 2.936-4.53 5.851-6.807 8.769-5.767 7.393-5.767 7.393-11.473 14.834-6.923 9.109-14.256 17.798-21.753 26.434l-1.775 2.043a1894 1894 0 0 1-3.418 3.921 441 441 0 0 0-3.034 3.517 156 156 0 0 1-3.23 3.628c-1.253 1.868-1.253 1.868-1.11 4.281 1.451 3.601 3.923 5.682 6.797 8.16l3.594 3.208 1.855 1.635c2.72 2.41 5.386 4.875 8.051 7.345l1.582 1.46c19.369 17.896 19.369 17.896 27.23 25.852 6.325 6.398 13.269 12.08 20.14 17.873a549 549 0 0 1 11.114 9.628L565 578l1.749 1.567c2.845 1.811 4.598 1.805 7.958 1.8l3.526.017 3.857-.028q2.036.001 4.071.007c3.682.005 7.363-.009 11.045-.026 3.85-.015 7.701-.014 11.552-.015q9.698-.006 19.394-.04c8.304-.03 16.608-.04 24.912-.044 7.134-.004 14.267-.017 21.4-.03q3.445-.007 6.89-.01 5.404-.008 10.81-.03a2309 2309 0 0 1 5.874-.01l3.51-.018 3.062-.009c2.405.027 2.405.027 4.39-1.131-1.616-4.087-4.552-6.79-7.637-9.797l-1.69-1.674a1749 1749 0 0 0-5.36-5.279q-3.512-3.455-7.012-6.922l-1.698-1.68a182 182 0 0 1-10.262-11.083c-1.681-1.962-3.483-3.77-5.341-5.565-3.167-3.125-6.119-6.362-9.02-9.734-2.446-2.8-4.961-5.533-7.48-8.266-5.148-5.598-10.191-11.267-15.102-17.074a533 533 0 0 0-18.53-20.734c-3.448-3.663-6.823-7.368-10.106-11.18-2.803-3.2-5.693-6.32-8.575-9.448a704 704 0 0 1-8.687-9.627c-3.261-3.64-6.649-7.128-10.125-10.562a178 178 0 0 1-10.484-11.266c-3.312-3.694-6.892-7.126-10.438-10.593C559 417 559 417 557.297 414.672L556 413c-2.985 0-3.844 1.543-5.937 3.625m-57.699 194.53q-4.814.062-9.627.118l-8.012.097a16318 16318 0 0 1-105.417.915q-23.63.144-47.26.27c-33.566.174-67.13.372-100.693.914l-3.74.057q-5.176.08-10.353.175l-2.994.046c-6.459.127-12.842.587-19.268 1.253l-1 3c2.547 4.467 5.807 8.207 9.313 11.938l1.553 1.666c8.365 8.905 16.863 17.874 26.216 25.751 2.354 2.02 4.593 4.15 6.856 6.27C275.208 706.645 341.818 733.527 405 740l2.792.29c11.72 1.022 23.488.932 35.244.95 3.73.01 7.459.041 11.189.072 21.638.098 42.637-1.745 63.65-7l4.333-1.054c20.906-5.139 41.34-10.904 60.792-20.258l2.827-1.36c18.857-9.197 35.81-20.563 52.173-33.64.953-.76 1.905-1.519 2.887-2.3 10.766-8.695 20.768-18.117 30.55-27.888l1.669-1.665C688.254 631.191 688.254 631.191 699 613c-4.55-.721-8.927-1.131-13.531-1.158l-3.854-.03-4.178-.017-4.443-.03q-6.024-.04-12.048-.068-6.352-.035-12.703-.076-10.701-.067-21.401-.124-14.936-.081-29.87-.174-11.74-.072-23.48-.14l-2.483-.014c-39.323-.26-39.323-.26-78.645-.014"/>
  <path d="m390.398 19.832 3.848-.01q4.026-.008 8.053-.007c4.002 0 8.004-.02 12.006-.04 22.463-.05 45.001.714 67.258 3.975l3.578.515C526.78 30.506 566.136 43.792 604 62l3.464 1.658C622.545 70.912 637.15 78.56 651 88l2.514 1.704C672.022 102.3 689.253 116.16 706 131l2.136 1.88c6.326 5.625 12.395 11.465 18.378 17.449q2.32 2.313 4.652 4.612c5.676 5.645 10.951 11.405 15.925 17.688 1.785 2.216 3.647 4.3 5.596 6.371 10.688 11.904 19.669 25.565 28.313 39l1.38 2.137c33.461 51.951 56.762 106.551 66.995 167.613l.369 2.187c.834 5.01 1.58 10.029 2.256 15.063l.3 2.218c2.06 15.806 2.056 31.615 2.013 47.532l-.005 4.091c-.032 19.862-.44 39.473-3.308 59.159l-.406 2.972C844.046 567.533 822.646 622.007 795 660l-2.035 2.824c-14.92 20.282-31.417 39.978-49.422 57.598-1.61 1.647-3.068 3.372-4.543 5.14-5.251 6.094-11.32 11.403-17.246 16.824a329 329 0 0 0-4.317 4.06c-11.895 11.193-26.033 20.11-39.525 29.254a897 897 0 0 0-5.611 3.855C647.01 796.905 618.8 809.695 590 820l-3.017 1.089c-22.386 8.004-45.09 13.527-68.545 17.223l-2.365.374C445.967 849.633 373.675 845.538 306 824l-3.26-1.026C253.01 807.148 206.792 779.604 167 746l-3.013-2.505c-8.684-7.275-16.81-15.007-24.793-23.04a1506 1506 0 0 0-6.067-6.055c-7.17-7.163-13.868-14.418-20.127-22.4a261 261 0 0 0-2.61-3.066c-62.939-73.391-100.237-170.17-100.074-297.94C15.85 322.848 35.963 259.748 74 203l1.874-2.805C95.979 170.175 119.177 141.307 147 118l2.594-2.223C214.57 60.67 304.179 19.913 390.398 19.832M253 86l-2.379.996C222.435 98.87 194.925 118 172.477 138.734a151 151 0 0 1-4.072 3.622c-6.322 5.391-12.179 11.232-18.05 17.103-1.78 1.779-3.568 3.549-5.357 5.318-6.8 6.767-13.06 13.679-18.998 21.223a753 753 0 0 1-3.3 3.977c-48.023 57.961-77.634 133.327-77.903 208.968l-.017 3.91q-.015 4.076-.02 8.152-.007 4.08-.041 8.16c-.195 23.587 1.208 46.87 5.593 70.083l.642 3.466C56.4 521.364 65.316 547.759 78 574l1.078 2.235a539 539 0 0 0 5.798 11.576c1.3 2.53 2.58 5.071 3.862 7.61C95.178 608.074 102.133 620.186 110 632l1.434 2.16c15.272 22.88 33.036 43.499 52.473 62.932 1.598 1.6 3.187 3.208 4.777 4.816 6.45 6.485 13.15 12.393 20.316 18.092q1.654 1.401 3.285 2.828C227.048 753.142 270.512 776.15 314 791l2.769.948C393.92 817.882 480.773 819.348 611 777l2.113-1.01A458 458 0 0 0 627 769l2.082-1.08C654.55 754.618 678.632 737.19 700 718l1.55-1.378c7.341-6.552 14.354-13.429 21.325-20.372l2.415-2.4A263 263 0 0 0 739 679l2.633-2.992C767.805 645.733 790.253 609.59 804 572l.823-2.219c14.022-38.248 17.343-77.96 17.365-118.343l.003-3.398c-.002-18.789-.395-37.16-3.441-55.728l-.335-2.073c-11.915-73.665-46.887-144.786-97.827-199.508-1.948-2.124-3.856-4.28-5.772-6.434-4.95-5.509-10.131-10.76-15.379-15.984l-2.708-2.721c-5.082-5.074-10.27-9.93-15.729-14.592a1205 1205 0 0 1-3.176-2.816C644.947 119.248 604.872 94.744 564 79l-3.056-1.183C513.48 59.655 461.834 49.797 411 49.75l-2.342-.003C353.515 49.795 303.248 64.504 253 86"/>
  <path d="m272.063 225.75 2.74-.062c11.24-.065 20.392 3.3 29.197 10.312 9.546 9.676 14.911 21.143 15.375 34.688-.11 7.306-1.751 13.528-4.375 20.312l-.84 2.273c-4.066 9.48-12.674 16.188-21.805 20.47-5.41 1.857-10.932 1.91-16.605 1.945l-3.047.021c-13.514-.33-23.095-6.684-32.844-15.686-9.371-9.9-11.35-21.365-11.136-34.464.237-5.747 1.657-10.449 4.277-15.559l1.32-2.64c7.847-14.322 21.75-21.521 37.743-21.61m-18.188 31.313c-3.927 6.151-4.986 11.718-3.875 18.937 2.79 6.482 8.043 12.254 14 16 6.46 2.526 12.546 2.447 19 0 6.07-2.827 9.527-6.317 13-12 2.086-6.259 1.736-12.183-1-18.187-3.25-5.862-7.686-9.807-13.375-13.25-10.245-2.196-20.597.376-27.75 8.5M399 644c2.375.313 2.375.313 5 1 6.515 9.773 4.595 27.61 5 39-6.64.242-6.64.242-9.875-1.937-2.765-3.985-3.01-7.304-3.125-12.063h-4v2h-5c-.182.748-.364 1.495-.55 2.266l-.762 2.984-.739 2.953c-.946 2.787-2.056 4.57-3.949 6.797l-5-1c-2.754-12.334-2.13-25.43-2-38 4.18.532 6.416 1.809 9.625 4.5 2.577 2.146 4.168 3.431 7.375 4.5l.625-2c1.887-4.116 4.58-7.459 7.375-11m40-3c2.375.313 2.375.313 5 1 6.515 9.773 4.595 27.61 5 39-6.64.242-6.64.242-9.875-1.937-2.765-3.985-3.01-7.304-3.125-12.063h-4v2h-5c-.182.748-.364 1.495-.55 2.266l-.762 2.984-.739 2.953c-.946 2.787-2.056 4.57-3.949 6.797l-5-1c-2.754-12.334-2.13-25.43-2-38 4.18.532 6.416 1.809 9.625 4.5 2.577 2.146 4.168 3.431 7.375 4.5l.625-2c1.887-4.116 4.58-7.459 7.375-11"/>
</svg>
